<mxfile host="app.diagrams.net" modified="2024-07-13T07:07:34.285Z" agent="Mozilla/5.0 (Windows NT 10.0; Win64; x64) AppleWebKit/537.36 (KHTML, like Gecko) Chrome/126.0.0.0 Safari/537.36" etag="UwJgGXgxTcE2C8_LPtC3" version="24.6.5" type="device">
  <diagram id="C5RBs43oDa-KdzZeNtuy" name="Page-1">
    <mxGraphModel dx="1434" dy="780" grid="1" gridSize="10" guides="1" tooltips="1" connect="1" arrows="1" fold="1" page="1" pageScale="1" pageWidth="1169" pageHeight="827" math="0" shadow="0">
      <root>
        <mxCell id="WIyWlLk6GJQsqaUBKTNV-0" />
        <mxCell id="WIyWlLk6GJQsqaUBKTNV-1" parent="WIyWlLk6GJQsqaUBKTNV-0" />
        <mxCell id="7lQQ3kjjFQROvkGNkguy-1" style="edgeStyle=orthogonalEdgeStyle;rounded=0;orthogonalLoop=1;jettySize=auto;html=1;exitX=0.5;exitY=1;exitDx=0;exitDy=0;entryX=0.5;entryY=0;entryDx=0;entryDy=0;" parent="WIyWlLk6GJQsqaUBKTNV-1" source="7lQQ3kjjFQROvkGNkguy-0" target="7lQQ3kjjFQROvkGNkguy-3" edge="1">
          <mxGeometry relative="1" as="geometry">
            <mxPoint x="400" y="290" as="targetPoint" />
          </mxGeometry>
        </mxCell>
        <mxCell id="7lQQ3kjjFQROvkGNkguy-0" value="Start" style="ellipse;whiteSpace=wrap;html=1;" parent="WIyWlLk6GJQsqaUBKTNV-1" vertex="1">
          <mxGeometry x="340" width="120" height="80" as="geometry" />
        </mxCell>
        <mxCell id="7lQQ3kjjFQROvkGNkguy-18" style="edgeStyle=orthogonalEdgeStyle;rounded=0;orthogonalLoop=1;jettySize=auto;html=1;exitX=0.5;exitY=1;exitDx=0;exitDy=0;entryX=0.5;entryY=0;entryDx=0;entryDy=0;" parent="WIyWlLk6GJQsqaUBKTNV-1" source="7lQQ3kjjFQROvkGNkguy-3" target="7lQQ3kjjFQROvkGNkguy-17" edge="1">
          <mxGeometry relative="1" as="geometry" />
        </mxCell>
        <mxCell id="7lQQ3kjjFQROvkGNkguy-3" value="Face Recording via CCTV" style="rounded=0;whiteSpace=wrap;html=1;" parent="WIyWlLk6GJQsqaUBKTNV-1" vertex="1">
          <mxGeometry x="340" y="120" width="120" height="60" as="geometry" />
        </mxCell>
        <mxCell id="7lQQ3kjjFQROvkGNkguy-7" value="" style="edgeStyle=orthogonalEdgeStyle;rounded=0;orthogonalLoop=1;jettySize=auto;html=1;entryX=0.5;entryY=0;entryDx=0;entryDy=0;exitX=0.5;exitY=1;exitDx=0;exitDy=0;" parent="WIyWlLk6GJQsqaUBKTNV-1" source="7lQQ3kjjFQROvkGNkguy-4" target="7lQQ3kjjFQROvkGNkguy-8" edge="1">
          <mxGeometry relative="1" as="geometry">
            <mxPoint x="400" y="650" as="targetPoint" />
          </mxGeometry>
        </mxCell>
        <mxCell id="7lQQ3kjjFQROvkGNkguy-4" value="Saving Face Pictures with vary perspective" style="whiteSpace=wrap;html=1;rounded=0;" parent="WIyWlLk6GJQsqaUBKTNV-1" vertex="1">
          <mxGeometry x="100" y="290" width="120" height="60" as="geometry" />
        </mxCell>
        <mxCell id="7lQQ3kjjFQROvkGNkguy-11" value="" style="edgeStyle=orthogonalEdgeStyle;rounded=0;orthogonalLoop=1;jettySize=auto;html=1;" parent="WIyWlLk6GJQsqaUBKTNV-1" source="7lQQ3kjjFQROvkGNkguy-6" target="7lQQ3kjjFQROvkGNkguy-10" edge="1">
          <mxGeometry relative="1" as="geometry" />
        </mxCell>
        <mxCell id="7lQQ3kjjFQROvkGNkguy-6" value="Checking the Faces from selected google websites face pictures via web scraping" style="whiteSpace=wrap;html=1;rounded=0;" parent="WIyWlLk6GJQsqaUBKTNV-1" vertex="1">
          <mxGeometry x="80" y="520" width="160" height="60" as="geometry" />
        </mxCell>
        <mxCell id="7lQQ3kjjFQROvkGNkguy-9" style="edgeStyle=orthogonalEdgeStyle;rounded=0;orthogonalLoop=1;jettySize=auto;html=1;exitX=0.5;exitY=1;exitDx=0;exitDy=0;entryX=0.5;entryY=0;entryDx=0;entryDy=0;" parent="WIyWlLk6GJQsqaUBKTNV-1" source="7lQQ3kjjFQROvkGNkguy-8" target="7lQQ3kjjFQROvkGNkguy-15" edge="1">
          <mxGeometry relative="1" as="geometry">
            <mxPoint x="400" y="585" as="targetPoint" />
          </mxGeometry>
        </mxCell>
        <mxCell id="7lQQ3kjjFQROvkGNkguy-8" value="Selecting fitted websites by eliminating useless or irrelevant website resources" style="rounded=0;whiteSpace=wrap;html=1;" parent="WIyWlLk6GJQsqaUBKTNV-1" vertex="1">
          <mxGeometry x="80" y="360" width="160" height="60" as="geometry" />
        </mxCell>
        <mxCell id="7lQQ3kjjFQROvkGNkguy-13" value="" style="edgeStyle=orthogonalEdgeStyle;rounded=0;orthogonalLoop=1;jettySize=auto;html=1;" parent="WIyWlLk6GJQsqaUBKTNV-1" source="7lQQ3kjjFQROvkGNkguy-10" target="7lQQ3kjjFQROvkGNkguy-12" edge="1">
          <mxGeometry relative="1" as="geometry" />
        </mxCell>
        <mxCell id="7lQQ3kjjFQROvkGNkguy-10" value="Comparing CCTV face pictures and website faces" style="whiteSpace=wrap;html=1;rounded=0;" parent="WIyWlLk6GJQsqaUBKTNV-1" vertex="1">
          <mxGeometry x="75" y="590" width="160" height="60" as="geometry" />
        </mxCell>
        <mxCell id="7lQQ3kjjFQROvkGNkguy-22" value="" style="edgeStyle=orthogonalEdgeStyle;rounded=0;orthogonalLoop=1;jettySize=auto;html=1;" parent="WIyWlLk6GJQsqaUBKTNV-1" source="7lQQ3kjjFQROvkGNkguy-12" target="7lQQ3kjjFQROvkGNkguy-21" edge="1">
          <mxGeometry relative="1" as="geometry" />
        </mxCell>
        <mxCell id="7lQQ3kjjFQROvkGNkguy-12" value="Gathering information from comparison result in internet" style="whiteSpace=wrap;html=1;rounded=0;" parent="WIyWlLk6GJQsqaUBKTNV-1" vertex="1">
          <mxGeometry x="75" y="670" width="160" height="60" as="geometry" />
        </mxCell>
        <mxCell id="7lQQ3kjjFQROvkGNkguy-20" style="edgeStyle=orthogonalEdgeStyle;rounded=0;orthogonalLoop=1;jettySize=auto;html=1;exitX=0.5;exitY=1;exitDx=0;exitDy=0;entryX=0.5;entryY=0;entryDx=0;entryDy=0;" parent="WIyWlLk6GJQsqaUBKTNV-1" source="7lQQ3kjjFQROvkGNkguy-15" target="7lQQ3kjjFQROvkGNkguy-6" edge="1">
          <mxGeometry relative="1" as="geometry" />
        </mxCell>
        <mxCell id="7lQQ3kjjFQROvkGNkguy-15" value="Selected Websites" style="shape=parallelogram;perimeter=parallelogramPerimeter;whiteSpace=wrap;html=1;fixedSize=1;" parent="WIyWlLk6GJQsqaUBKTNV-1" vertex="1">
          <mxGeometry x="85" y="440" width="150" height="60" as="geometry" />
        </mxCell>
        <mxCell id="7lQQ3kjjFQROvkGNkguy-19" style="edgeStyle=orthogonalEdgeStyle;rounded=0;orthogonalLoop=1;jettySize=auto;html=1;exitX=0.5;exitY=1;exitDx=0;exitDy=0;entryX=0.5;entryY=0;entryDx=0;entryDy=0;" parent="WIyWlLk6GJQsqaUBKTNV-1" source="7lQQ3kjjFQROvkGNkguy-17" target="7lQQ3kjjFQROvkGNkguy-4" edge="1">
          <mxGeometry relative="1" as="geometry" />
        </mxCell>
        <mxCell id="7lQQ3kjjFQROvkGNkguy-17" value="Face Pictures" style="shape=parallelogram;perimeter=parallelogramPerimeter;whiteSpace=wrap;html=1;fixedSize=1;" parent="WIyWlLk6GJQsqaUBKTNV-1" vertex="1">
          <mxGeometry x="100" y="220" width="120" height="60" as="geometry" />
        </mxCell>
        <mxCell id="7lQQ3kjjFQROvkGNkguy-23" style="edgeStyle=orthogonalEdgeStyle;rounded=0;orthogonalLoop=1;jettySize=auto;html=1;entryX=0;entryY=0.5;entryDx=0;entryDy=0;exitX=1;exitY=0.5;exitDx=0;exitDy=0;" parent="WIyWlLk6GJQsqaUBKTNV-1" source="7lQQ3kjjFQROvkGNkguy-21" target="7lQQ3kjjFQROvkGNkguy-26" edge="1">
          <mxGeometry relative="1" as="geometry">
            <mxPoint x="320" y="320" as="targetPoint" />
            <mxPoint x="330" y="790" as="sourcePoint" />
            <Array as="points">
              <mxPoint x="500" y="780" />
              <mxPoint x="500" y="240" />
              <mxPoint x="530" y="240" />
            </Array>
          </mxGeometry>
        </mxCell>
        <mxCell id="7lQQ3kjjFQROvkGNkguy-21" value="Identifical Information about person" style="shape=parallelogram;perimeter=parallelogramPerimeter;whiteSpace=wrap;html=1;fixedSize=1;rounded=0;" parent="WIyWlLk6GJQsqaUBKTNV-1" vertex="1">
          <mxGeometry x="28.75" y="750" width="262.5" height="60" as="geometry" />
        </mxCell>
        <mxCell id="7lQQ3kjjFQROvkGNkguy-30" value="" style="edgeStyle=orthogonalEdgeStyle;rounded=0;orthogonalLoop=1;jettySize=auto;html=1;" parent="WIyWlLk6GJQsqaUBKTNV-1" source="7lQQ3kjjFQROvkGNkguy-26" target="7lQQ3kjjFQROvkGNkguy-29" edge="1">
          <mxGeometry relative="1" as="geometry" />
        </mxCell>
        <mxCell id="7lQQ3kjjFQROvkGNkguy-26" value="Fetch past conversation data with using information" style="rounded=0;whiteSpace=wrap;html=1;" parent="WIyWlLk6GJQsqaUBKTNV-1" vertex="1">
          <mxGeometry x="530" y="205" width="120" height="60" as="geometry" />
        </mxCell>
        <mxCell id="7lQQ3kjjFQROvkGNkguy-32" value="" style="edgeStyle=orthogonalEdgeStyle;rounded=0;orthogonalLoop=1;jettySize=auto;html=1;" parent="WIyWlLk6GJQsqaUBKTNV-1" source="7lQQ3kjjFQROvkGNkguy-29" target="7lQQ3kjjFQROvkGNkguy-31" edge="1">
          <mxGeometry relative="1" as="geometry" />
        </mxCell>
        <mxCell id="7lQQ3kjjFQROvkGNkguy-33" value="Conversation" style="edgeLabel;html=1;align=center;verticalAlign=middle;resizable=0;points=[];" parent="7lQQ3kjjFQROvkGNkguy-32" vertex="1" connectable="0">
          <mxGeometry x="0.0784" y="2" relative="1" as="geometry">
            <mxPoint as="offset" />
          </mxGeometry>
        </mxCell>
        <mxCell id="7lQQ3kjjFQROvkGNkguy-35" value="" style="edgeStyle=orthogonalEdgeStyle;rounded=0;orthogonalLoop=1;jettySize=auto;html=1;" parent="WIyWlLk6GJQsqaUBKTNV-1" source="7lQQ3kjjFQROvkGNkguy-29" target="7lQQ3kjjFQROvkGNkguy-34" edge="1">
          <mxGeometry relative="1" as="geometry" />
        </mxCell>
        <mxCell id="7lQQ3kjjFQROvkGNkguy-36" value="Question" style="edgeLabel;html=1;align=center;verticalAlign=middle;resizable=0;points=[];" parent="7lQQ3kjjFQROvkGNkguy-35" vertex="1" connectable="0">
          <mxGeometry x="0.0651" relative="1" as="geometry">
            <mxPoint x="1" y="1" as="offset" />
          </mxGeometry>
        </mxCell>
        <mxCell id="7lQQ3kjjFQROvkGNkguy-29" value="&lt;font style=&quot;font-size: 9px;&quot;&gt;Customer wants to make conversation or ask question&lt;/font&gt;" style="rhombus;whiteSpace=wrap;html=1;rounded=0;" parent="WIyWlLk6GJQsqaUBKTNV-1" vertex="1">
          <mxGeometry x="840" y="180" width="240" height="110" as="geometry" />
        </mxCell>
        <mxCell id="K8UYW8c7FlW-9oweIGjo-1" value="" style="edgeStyle=orthogonalEdgeStyle;rounded=0;orthogonalLoop=1;jettySize=auto;html=1;" edge="1" parent="WIyWlLk6GJQsqaUBKTNV-1" source="7lQQ3kjjFQROvkGNkguy-31" target="K8UYW8c7FlW-9oweIGjo-0">
          <mxGeometry relative="1" as="geometry" />
        </mxCell>
        <mxCell id="7lQQ3kjjFQROvkGNkguy-31" value="By using older conversation history, making conversation" style="whiteSpace=wrap;html=1;rounded=0;" parent="WIyWlLk6GJQsqaUBKTNV-1" vertex="1">
          <mxGeometry x="740" y="385" width="120" height="60" as="geometry" />
        </mxCell>
        <mxCell id="K8UYW8c7FlW-9oweIGjo-4" style="edgeStyle=orthogonalEdgeStyle;rounded=0;orthogonalLoop=1;jettySize=auto;html=1;exitX=0.5;exitY=1;exitDx=0;exitDy=0;entryX=1;entryY=0.5;entryDx=0;entryDy=0;" edge="1" parent="WIyWlLk6GJQsqaUBKTNV-1" source="7lQQ3kjjFQROvkGNkguy-34" target="K8UYW8c7FlW-9oweIGjo-0">
          <mxGeometry relative="1" as="geometry" />
        </mxCell>
        <mxCell id="K8UYW8c7FlW-9oweIGjo-6" style="edgeStyle=orthogonalEdgeStyle;rounded=0;orthogonalLoop=1;jettySize=auto;html=1;exitX=1;exitY=0.5;exitDx=0;exitDy=0;entryX=1;entryY=0.5;entryDx=0;entryDy=0;" edge="1" parent="WIyWlLk6GJQsqaUBKTNV-1" source="7lQQ3kjjFQROvkGNkguy-34" target="7lQQ3kjjFQROvkGNkguy-29">
          <mxGeometry relative="1" as="geometry" />
        </mxCell>
        <mxCell id="K8UYW8c7FlW-9oweIGjo-7" value="No" style="edgeLabel;html=1;align=center;verticalAlign=middle;resizable=0;points=[];" vertex="1" connectable="0" parent="K8UYW8c7FlW-9oweIGjo-6">
          <mxGeometry x="-0.2643" y="4" relative="1" as="geometry">
            <mxPoint as="offset" />
          </mxGeometry>
        </mxCell>
        <mxCell id="7lQQ3kjjFQROvkGNkguy-34" value="Answering question" style="whiteSpace=wrap;html=1;rounded=0;" parent="WIyWlLk6GJQsqaUBKTNV-1" vertex="1">
          <mxGeometry x="1020" y="385" width="120" height="60" as="geometry" />
        </mxCell>
        <mxCell id="7lQQ3kjjFQROvkGNkguy-39" value="Finish" style="ellipse;whiteSpace=wrap;html=1;" parent="WIyWlLk6GJQsqaUBKTNV-1" vertex="1">
          <mxGeometry x="735" y="710" width="130" height="80" as="geometry" />
        </mxCell>
        <mxCell id="K8UYW8c7FlW-9oweIGjo-2" style="edgeStyle=orthogonalEdgeStyle;rounded=0;orthogonalLoop=1;jettySize=auto;html=1;entryX=0.5;entryY=0;entryDx=0;entryDy=0;startArrow=none;startFill=0;exitX=0;exitY=0.5;exitDx=0;exitDy=0;" edge="1" parent="WIyWlLk6GJQsqaUBKTNV-1" source="K8UYW8c7FlW-9oweIGjo-0" target="7lQQ3kjjFQROvkGNkguy-29">
          <mxGeometry relative="1" as="geometry">
            <mxPoint x="710" y="598" as="sourcePoint" />
            <Array as="points">
              <mxPoint x="660" y="598" />
              <mxPoint x="660" y="160" />
              <mxPoint x="960" y="160" />
            </Array>
          </mxGeometry>
        </mxCell>
        <mxCell id="K8UYW8c7FlW-9oweIGjo-9" value="Yes" style="edgeLabel;html=1;align=center;verticalAlign=middle;resizable=0;points=[];" vertex="1" connectable="0" parent="K8UYW8c7FlW-9oweIGjo-2">
          <mxGeometry x="-0.9153" y="1" relative="1" as="geometry">
            <mxPoint x="1" as="offset" />
          </mxGeometry>
        </mxCell>
        <mxCell id="K8UYW8c7FlW-9oweIGjo-8" style="edgeStyle=orthogonalEdgeStyle;rounded=0;orthogonalLoop=1;jettySize=auto;html=1;exitX=0.5;exitY=1;exitDx=0;exitDy=0;entryX=0.5;entryY=0;entryDx=0;entryDy=0;" edge="1" parent="WIyWlLk6GJQsqaUBKTNV-1" source="K8UYW8c7FlW-9oweIGjo-0" target="7lQQ3kjjFQROvkGNkguy-39">
          <mxGeometry relative="1" as="geometry" />
        </mxCell>
        <mxCell id="K8UYW8c7FlW-9oweIGjo-10" value="No" style="edgeLabel;html=1;align=center;verticalAlign=middle;resizable=0;points=[];" vertex="1" connectable="0" parent="K8UYW8c7FlW-9oweIGjo-8">
          <mxGeometry x="-0.7" y="1" relative="1" as="geometry">
            <mxPoint as="offset" />
          </mxGeometry>
        </mxCell>
        <mxCell id="K8UYW8c7FlW-9oweIGjo-0" value="If customer wants to continue using robot" style="rhombus;whiteSpace=wrap;html=1;rounded=0;" vertex="1" parent="WIyWlLk6GJQsqaUBKTNV-1">
          <mxGeometry x="717.5" y="525" width="165" height="145" as="geometry" />
        </mxCell>
      </root>
    </mxGraphModel>
  </diagram>
</mxfile>
